<svg xmlns="http://www.w3.org/2000/svg" width="24" height="24" viewBox="0 0 24 24" id="undo"><path d="M10 21c-.2 0-.5-.1-.7-.3l-9-8c-.2-.1-.3-.4-.3-.7s.1-.6.3-.7l9-8c.3-.3.7-.3 1.1-.2.4.1.6.5.6.9v5c0 .6-.4 1-1 1s-1-.4-1-1V6.2L2.5 12 9 17.8V15c0-.6.4-1 1-1s1 .4 1 1v5c0 .4-.2.8-.6.9-.1.1-.3.1-.4.1z"></path><path d="M23 21c-.4 0-.8-.2-.9-.6 0 0-2-4.4-12.1-4.4-.6 0-1-.4-1-1s.4-1 1-1c6.1 0 9.6 1.5 11.6 2.9C19.5 10.1 10.4 10 10 10c-.6 0-1-.4-1-1s.4-1 1-1c.1 0 14 .1 14 12 0 .5-.3.9-.8 1H23z"></path></svg>